<svg width="32" height="24" viewBox="0 0 32 24" fill="none" xmlns="http://www.w3.org/2000/svg">
<path d="M30.8077 8.09437C31.0469 7.90547 31.4026 8.08219 31.4026 8.38078V20.8425C31.4026 22.4573 30.0839 23.7675 28.4586 23.7675H2.94399C1.31866 23.7675 0 22.4573 0 20.8425V8.38688C0 8.08219 0.349599 7.91156 0.594932 8.10047C1.9688 9.16078 3.79039 10.5075 10.0464 15.023C11.3405 15.9614 13.524 17.9358 15.7013 17.9236C17.8909 17.9419 20.1173 15.9248 21.3624 15.023C27.6183 10.5075 29.4338 9.15469 30.8077 8.09437ZM15.7013 15.9675C17.1242 15.9919 19.1728 14.1881 20.2032 13.4447C28.3421 7.57641 28.9615 7.06453 30.8383 5.60203C31.1941 5.32781 31.4026 4.90125 31.4026 4.45031V3.2925C31.4026 1.67766 30.0839 0.3675 28.4586 0.3675H2.94399C1.31866 0.3675 0 1.67766 0 3.2925V4.45031C0 4.90125 0.208533 5.32172 0.564265 5.60203C2.44106 7.05844 3.06053 7.57641 11.1994 13.4447C12.2298 14.1881 14.2784 15.9919 15.7013 15.9675Z" fill="black"/>
</svg>
