<svg width="30" height="20" viewBox="0 0 30 20" fill="none" xmlns="http://www.w3.org/2000/svg">
<path d="M28.9982 1.63984C29.2 0.878122 28.9982 0.317497 28.0278 0.317497H24.8167C23.9989 0.317497 23.6227 0.798903 23.421 1.33515C23.421 1.33515 21.7854 5.78968 19.4739 8.67812C18.727 9.51296 18.3835 9.78109 17.9746 9.78109C17.7729 9.78109 17.4621 9.51296 17.4621 8.75125V1.63984C17.4621 0.725778 17.2332 0.317497 16.5571 0.317497H11.5087C10.9963 0.317497 10.691 0.74406 10.691 1.14015C10.691 2.00547 11.8467 2.20656 11.9667 4.64406V9.93343C11.9667 11.0912 11.7813 11.3045 11.3724 11.3045C10.2821 11.3045 7.63247 6.83171 6.06234 1.71297C5.74613 0.719685 5.43538 0.317497 4.61215 0.317497H1.40102C0.485106 0.317497 0.299744 0.798903 0.299744 1.33515C0.299744 2.28578 1.39011 7.00843 5.37541 13.2484C8.03045 17.508 11.7704 19.8175 15.1724 19.8175C17.2168 19.8175 17.4676 19.3056 17.4676 18.422C17.4676 14.3514 17.2822 13.9675 18.3072 13.9675C18.7815 13.9675 19.5993 14.2356 21.5074 16.2892C23.6881 18.7267 24.048 19.8175 25.2692 19.8175H28.4803C29.3962 19.8175 29.8596 19.3056 29.5925 18.2941C28.9819 16.1673 24.8548 11.792 24.6695 11.4995C24.1952 10.817 24.3315 10.5123 24.6695 9.90296C24.6749 9.89687 28.5948 3.73 28.9982 1.63984Z" fill="black"/>
</svg>
